<?xml version="1.0" standalone="no"?>
<svg xmlns:xlink="http://www.w3.org/1999/xlink" id="wave" style="transform:rotate(180deg); transition: 0.3s" viewBox="0 0 1440 490" version="1.1" xmlns="http://www.w3.org/2000/svg"><defs><linearGradient id="sw-gradient-0" x1="0" x2="0" y1="1" y2="0"><stop stop-color="rgba(0, 63, 172, 1)" offset="0%"/><stop stop-color="rgba(0, 63, 172, 1)" offset="100%"/></linearGradient></defs><path style="transform:translate(0, 0px); opacity:1" fill="url(#sw-gradient-0)" d="M0,98L12.6,147C25.3,196,51,294,76,334.8C101.1,376,126,359,152,318.5C176.8,278,202,212,227,196C252.6,180,278,212,303,196C328.4,180,354,114,379,122.5C404.2,131,429,212,455,236.8C480,261,505,229,531,187.8C555.8,147,581,98,606,138.8C631.6,180,657,310,682,318.5C707.4,327,733,212,758,147C783.2,82,808,65,834,89.8C858.9,114,884,180,909,245C934.7,310,960,376,985,375.7C1010.5,376,1036,310,1061,253.2C1086.3,196,1112,147,1137,155.2C1162.1,163,1187,229,1213,253.2C1237.9,278,1263,261,1288,212.3C1313.7,163,1339,82,1364,98C1389.5,114,1415,229,1440,294C1465.3,359,1491,376,1516,334.8C1541.1,294,1566,196,1592,138.8C1616.8,82,1642,65,1667,89.8C1692.6,114,1718,180,1743,204.2C1768.4,229,1794,212,1806,204.2L1818.9,196L1818.9,490L1806.3,490C1793.7,490,1768,490,1743,490C1717.9,490,1693,490,1667,490C1642.1,490,1617,490,1592,490C1566.3,490,1541,490,1516,490C1490.5,490,1465,490,1440,490C1414.7,490,1389,490,1364,490C1338.9,490,1314,490,1288,490C1263.2,490,1238,490,1213,490C1187.4,490,1162,490,1137,490C1111.6,490,1086,490,1061,490C1035.8,490,1011,490,985,490C960,490,935,490,909,490C884.2,490,859,490,834,490C808.4,490,783,490,758,490C732.6,490,707,490,682,490C656.8,490,632,490,606,490C581.1,490,556,490,531,490C505.3,490,480,490,455,490C429.5,490,404,490,379,490C353.7,490,328,490,303,490C277.9,490,253,490,227,490C202.1,490,177,490,152,490C126.3,490,101,490,76,490C50.5,490,25,490,13,490L0,490Z"/></svg>